<svg width="35" height="35" viewBox="0 0 35 35" fill="none" xmlns="http://www.w3.org/2000/svg">
<path d="M17.7917 18.9583L16.4792 20.2708C16.2118 20.5382 16.0781 20.8784 16.0781 21.2916C16.0781 21.7048 16.2118 22.0451 16.4792 22.3125C16.7465 22.5798 17.0868 22.7135 17.5 22.7135C17.9132 22.7135 18.2535 22.5798 18.5208 22.3125L22.3125 18.5208C22.6042 18.2291 22.75 17.8889 22.75 17.5C22.75 17.1111 22.6042 16.7708 22.3125 16.4791L18.5208 12.6875C18.2535 12.4201 17.9132 12.2864 17.5 12.2864C17.0868 12.2864 16.7465 12.4201 16.4792 12.6875C16.2118 12.9548 16.0781 13.2951 16.0781 13.7083C16.0781 14.1215 16.2118 14.4618 16.4792 14.7291L17.7917 16.0416H13.125C12.7118 16.0416 12.3652 16.1816 12.0852 16.4616C11.8052 16.7416 11.6657 17.0877 11.6667 17.5C11.6667 17.9132 11.8067 18.2598 12.0867 18.5398C12.3667 18.8198 12.7128 18.9593 13.125 18.9583H17.7917ZM17.5 32.0833C15.4826 32.0833 13.5868 31.7002 11.8125 30.9341C10.0382 30.168 8.49478 29.1292 7.18228 27.8177C5.86978 26.5052 4.83096 24.9618 4.06582 23.1875C3.30068 21.4132 2.91763 19.5173 2.91666 17.5C2.91666 15.4826 3.29971 13.5868 4.06582 11.8125C4.83193 10.0382 5.87075 8.49475 7.18228 7.18225C8.49478 5.86975 10.0382 4.83093 11.8125 4.06579C13.5868 3.30065 15.4826 2.9176 17.5 2.91663C19.5174 2.91663 21.4132 3.29968 23.1875 4.06579C24.9618 4.8319 26.5052 5.87072 27.8177 7.18225C29.1302 8.49475 30.1695 10.0382 30.9356 11.8125C31.7017 13.5868 32.0843 15.4826 32.0833 17.5C32.0833 19.5173 31.7003 21.4132 30.9342 23.1875C30.168 24.9618 29.1292 26.5052 27.8177 27.8177C26.5052 29.1302 24.9618 30.1695 23.1875 30.9356C21.4132 31.7017 19.5174 32.0843 17.5 32.0833ZM17.5 29.1666C20.7569 29.1666 23.5156 28.0364 25.776 25.776C28.0364 23.5156 29.1667 20.7569 29.1667 17.5C29.1667 14.243 28.0364 11.4843 25.776 9.22392C23.5156 6.9635 20.7569 5.83329 17.5 5.83329C14.243 5.83329 11.4844 6.9635 9.22395 9.22392C6.96353 11.4843 5.83332 14.243 5.83332 17.5C5.83332 20.7569 6.96353 23.5156 9.22395 25.776C11.4844 28.0364 14.243 29.1666 17.5 29.1666Z" fill="url(#paint0_linear_461_168)"/>
<defs>
<linearGradient id="paint0_linear_461_168" x1="17.5" y1="2.91663" x2="29.5" y2="34" gradientUnits="userSpaceOnUse">
<stop stop-color="#02BEB3"/>
<stop offset="1" stop-color="#1A5576"/>
</linearGradient>
</defs>
</svg>
